<?xml version="1.0" encoding="utf-8"?>
<!-- Generator: Adobe Illustrator 18.1.1, SVG Export Plug-In . SVG Version: 6.00 Build 0)  -->
<svg version="1.1" id="Layer_1" xmlns="http://www.w3.org/2000/svg" xmlns:xlink="http://www.w3.org/1999/xlink" x="0px" y="0px"
	 viewBox="0 0 75 26.4" enable-background="new 0 0 75 26.4" xml:space="preserve">
<path fill="#FFFFFF" d="M14.2,9h4.1V4.6c0-1.2-0.6-1.8-1.8-1.8H16c-1.2,0-1.8,0.6-1.8,1.8V9z M14.1,11.8l0,4.8
	c0,1.2,0.6,1.8,1.8,1.8h0.5c1.2,0,1.8-0.6,1.8-1.8v-2.4h2.8v2.3c0,3.1-1.6,4.7-4.7,4.7h-0.6c-3.1,0-4.7-1.6-4.7-4.3V5
	c0-3.5,1.6-5,4.7-5h0.6c3.1,0,4.7,1.6,4.7,4.7l0,7.1H14.1z"/>
<path fill="#FFFFFF" d="M26,17.4c0.8,0.7,1.7,1.1,2.7,1.1c1.1,0,1.7-0.5,1.7-1.7V4.5c0-1.2-0.6-1.7-1.7-1.7c-1,0-1.9,0.4-2.7,1.1
	V17.4z M23.1,0.2H26v1.3C26.7,0.8,27.9,0,29.6,0c2.5,0,3.7,1.7,3.7,4.1v13c0,2.5-1.2,4.1-3.7,4.1c-1.7,0-2.9-0.8-3.6-1.5v6.7h-2.9
	V0.2z"/>
<path fill="#FFFFFF" d="M42.1,17.5v-6.8l-2.6,1c-1.1,0.4-1.4,1-1.4,2.2v3.1c0,1,0.5,1.5,1.4,1.5C40.3,18.4,41.1,18.1,42.1,17.5
	 M35.1,13.7c0-2.6,0.8-3.6,3.1-4.4L42.1,8V4.6c0-1.2-0.6-1.9-1.8-1.9h-0.5c-1.2,0-1.8,0.7-1.8,1.9v2.9h-2.8V4.7
	c0-3.1,1.6-4.7,4.7-4.7h0.6C43.4,0,45,1.6,45,4.7V21h-2.9v-1.3c-0.8,0.8-1.9,1.5-3.6,1.5c-2.3,0-3.4-1.3-3.4-3.6V13.7z"/>
<path fill="#FFFFFF" d="M56.8,21h-2.9V4.3c0-1-0.5-1.5-1.4-1.5c-0.8,0-1.7,0.3-2.7,1V21h-2.9V0.2h2.9v1.3c0.8-0.8,2-1.6,3.6-1.6
	c1.5,0,2.5,0.6,3,1.7c1-0.9,2.3-1.7,4-1.7c2.3,0,3.4,1.4,3.4,3.6V21h-2.9V4.3c0-1-0.5-1.5-1.4-1.5c-0.8,0-1.7,0.3-2.7,1V21z"/>
<polygon fill="#00B4CF" points="7.5,2.1 7.5,6 2.6,10.6 7.5,15.2 7.5,19.1 0,12.1 0,9.3 "/>
<polygon fill="#00B4CF" points="75,9.3 75,12.1 67.5,19.1 67.5,15.2 72.4,10.6 67.5,6 67.5,2.1 "/>
</svg>
